<svg xmlns="http://www.w3.org/2000/svg" xmlns:xlink="http://www.w3.org/1999/xlink" viewBox="0 0 1920 1080"><defs><linearGradient id="未命名的渐变" y1="540" x2="400" y2="540" gradientTransform="matrix(1, 0, 0, -1, 0, 1080)" gradientUnits="userSpaceOnUse"><stop offset="0" stop-color="#e0e7fa"/><stop offset="1" stop-color="#f0f4ff"/></linearGradient><linearGradient id="未命名的渐变_2" x1="1920" x2="1520" xlink:href="#未命名的渐变"/><linearGradient id="未命名的渐变_36" x1="1124.99" y1="522.87" x2="1333.17" y2="731.05" gradientUnits="userSpaceOnUse"><stop offset="0" stop-color="#fff"/><stop offset="1" stop-color="#e3eaff" stop-opacity="0.8"/></linearGradient><linearGradient id="未命名的渐变_26" x1="1366.34" y1="587.1" x2="1498.57" y2="719.33" gradientUnits="userSpaceOnUse"><stop offset="0" stop-color="#fff"/><stop offset="1" stop-color="#e3eaff" stop-opacity="0"/></linearGradient><linearGradient id="未命名的渐变_32" x1="1502.48" y1="685.98" x2="1526.29" y2="709.78" gradientUnits="userSpaceOnUse"><stop offset="0" stop-color="#fff"/><stop offset="1" stop-color="#cddaff"/></linearGradient><linearGradient id="未命名的渐变_39" x1="1128.9" y1="472.77" x2="1203.98" y2="752.98" gradientTransform="matrix(-1, 0, 0, 1, 1822.5, 0)" gradientUnits="userSpaceOnUse"><stop offset="0" stop-color="#fff"/><stop offset="1" stop-color="#eff6ff" stop-opacity="0.8"/></linearGradient><linearGradient id="未命名的渐变_26-2" x1="1449.27" y1="587.1" x2="1317.04" y2="719.33" gradientTransform="matrix(-1, 0, 0, 1, 1822.5, 0)" xlink:href="#未命名的渐变_26"/><linearGradient id="未命名的渐变_32-2" x1="684.26" y1="525.83" x2="702.64" y2="544.21" xlink:href="#未命名的渐变_32"/><linearGradient id="未命名的渐变_15" x1="314.52" y1="222.48" x2="446.57" y2="354.52" gradientTransform="translate(0 17)" gradientUnits="userSpaceOnUse"><stop offset="0" stop-color="#e3eaff"/><stop offset="1" stop-color="#e3eaff" stop-opacity="0"/></linearGradient><linearGradient id="未命名的渐变_15-2" x1="1411.98" y1="381.49" x2="1626" y2="381.49" xlink:href="#未命名的渐变_15"/></defs><title>login_bg</title><g id="图层_1" data-name="图层 1"><rect width="1920" height="1080" style="fill:#f0f4ff"/><rect width="400" height="1080" style="fill:url(#未命名的渐变)"/><rect x="1520" width="400" height="1080" style="fill:url(#未命名的渐变_2)"/></g><g id="图层_2" data-name="图层 2"><path d="M1402.5,601.7A145,145,0,0,0,1119,558.3a94.5,94.5,0,0,0,10.2,188.4h131.5A145,145,0,0,0,1402.5,601.7Z" style="fill:url(#未命名的渐变_36)"/><circle cx="1432.5" cy="653.2" r="93.5" style="fill:url(#未命名的渐变_26)"/><circle cx="1514.4" cy="697.9" r="16.8" style="fill:url(#未命名的渐变_32)"/><path d="M469.3,601.7a145,145,0,0,1,283.4-43.4,94.5,94.5,0,0,1-10.2,188.4H611A145,145,0,0,1,469.3,601.7Z" style="fill:url(#未命名的渐变_39)"/><circle cx="439.3" cy="653.2" r="93.5" style="fill:url(#未命名的渐变_26-2)"/><circle cx="693.4" cy="535" r="13" style="fill:url(#未命名的渐变_32-2)"/><g id="多边形_1" data-name="多边形 1"><path d="M453.2,247.5l-58.7-33.9c-10.4-5.8-18.7-4.9-27.2-.3-15.9,9.1-42.4,24.5-58.9,33.9-7.8,5.2-13.7,10.8-14.1,24.1-.2,18.9-.2,50.5-.2,69.1.4,10.3,4.5,18,15.3,24.1l57.1,33c8.9,5.2,18.5,5.8,28.8-.5l58.6-33.9c8.1-5.2,13-12.3,13.1-22.4,0-19.2,0-52.4,0-71.2C466.7,260.1,462,252.6,453.2,247.5Z" style="fill-rule:evenodd;fill:url(#未命名的渐变_15)"/></g><g id="多边形_1-2" data-name="多边形 1"><path d="M1617.6,357,1560,299.4c-7.9-7.4-17.8-9.6-29.1-6.6l-75.1,20.1c-13.1,3.7-19.2,11.2-22.3,21.8-5.5,20.3-14.5,54.2-20.3,75-2.2,10.5-2.3,19.8,8.1,30.9,15.2,15.4,40.7,41,55.8,56.1,8.6,8,18.2,11,32,7.1l73-19.5c11.4-3.1,19.7-10.2,23-23.7l20-74.8C1627.4,374.9,1625.6,365.3,1617.6,357Z" style="fill-rule:evenodd;fill:url(#未命名的渐变_15-2)"/></g><g id="矩形_6" data-name="矩形 6"><polygon points="483.1 394.7 453.2 402.7 457.9 420.4 474.9 423.9 487.8 412.4 483.1 394.7" style="fill:#adf3d8;fill-rule:evenodd"/></g><g id="矩形_6-2" data-name="矩形 6"><polygon points="468.2 398.8 453.2 402.7 457.9 420.4 474.9 423.9 468.2 398.8" style="fill:#b0f8eb;fill-rule:evenodd"/></g><g id="矩形_7" data-name="矩形 7"><polygon points="466.1 391.1 453.2 402.7 470.2 406.3 483.1 394.7 466.1 391.1" style="fill:#cafaf1;fill-rule:evenodd"/></g><g id="矩形_6-3" data-name="矩形 6"><polygon points="1370.9 463.7 1366.1 481.4 1379.1 492.9 1396.1 489.4 1400.8 471.7 1370.9 463.7" style="fill:#ffdcbc;fill-rule:evenodd"/></g><g id="矩形_6-4" data-name="矩形 6"><polygon points="1370.9 463.7 1366.1 481.4 1379.1 492.9 1385.8 467.8 1370.9 463.7" style="fill:#ffe8bb;fill-rule:evenodd"/></g><g id="矩形_7-2" data-name="矩形 7"><polygon points="1387.9 460.1 1370.9 463.7 1383.8 475.3 1400.8 471.7 1387.9 460.1" style="fill:#ffeecd;fill-rule:evenodd"/></g><g id="s_leg" data-name="s leg"><path d="M1214.1,723h-7.5a1.5,1.5,0,0,0-1.5,1.5l3,15.7a1.5,1.5,0,0,0,1.5,1.5h1.5a1.5,1.5,0,0,0,1.5-1.5l3-15.7A1.5,1.5,0,0,0,1214.1,723Zm174.9,0h-7.5a1.5,1.5,0,0,0-1.5,1.5l3,15.7a1.5,1.5,0,0,0,1.5,1.5h1.5a1.5,1.5,0,0,0,1.5-1.5l3-15.7A1.5,1.5,0,0,0,1389,723Z" style="fill:#b8d0ff;fill-rule:evenodd"/></g><g id="back"><rect x="1205.1" y="647.4" width="180.1" height="74.91" rx="18" ry="18" style="fill:#b8d0ff"/></g><g id="pillow"><path d="M1267.7,673a3.7,3.7,0,0,0-3-4.4,42.9,42.9,0,0,1-31-5.9,3.8,3.8,0,0,0-4.4,3,55,55,0,0,1-.1,16.6,46.8,46.8,0,0,1-5.8,14.3,3.7,3.7,0,0,0,3,4.4,43.8,43.8,0,0,1,15-.2,59.1,59.1,0,0,1,15.9,6.1,3.8,3.8,0,0,0,4.4-3,50.4,50.4,0,0,1,0-16A51.1,51.1,0,0,1,1267.7,673Z" style="fill:#e2ebff;fill-rule:evenodd"/></g><g id="pillow-2" data-name="pillow"><path d="M1375.1,696.6a58.8,58.8,0,0,1-6.1-15.9,43.6,43.6,0,0,1,.2-15,3.8,3.8,0,0,0-4.4-3,46.9,46.9,0,0,1-14.4,5.8,55.3,55.3,0,0,1-16.6.1,3.7,3.7,0,0,0-3,4.4,42.7,42.7,0,0,1,5.9,30.9,3.8,3.8,0,0,0,4.4,3,51.3,51.3,0,0,1,15-5.9,50.7,50.7,0,0,1,16,0A3.7,3.7,0,0,0,1375.1,696.6Z" style="fill:#e2ebff;fill-rule:evenodd"/></g><g id="f"><path d="M1400.4,722.5l-2.2-42.5a5.2,5.2,0,0,0-5.1-4.9h-13.8a5.2,5.2,0,0,0-5.1,4.9l-1,20.5H1216.9l-1-20.5a5.2,5.2,0,0,0-5.1-4.9h-13.8a5.2,5.2,0,0,0-5.1,4.9l-2.2,42.5c-.2,3.9,2.3,7.2,5.6,7.2h199.5C1398.1,729.8,1400.6,726.5,1400.4,722.5Z" style="fill:#d5e3ff;fill-rule:evenodd"/></g><g id="legs"><path d="M1328.7,687.2a7.1,7.1,0,0,0-5.7,1.3l-29.9,3.7-26.6-4.2a7.2,7.2,0,0,0-4.9-.8c-4.8.8-6.1,4.3-5.2,9.1l9.8,36a1.9,1.9,0,0,0,2.2,1.5l4.7-.5a1.9,1.9,0,0,0,1.5-2.2l-3-30.3h47.1l-3,30.3a1.9,1.9,0,0,0,1.5,2.2l4.7.5a1.9,1.9,0,0,0,2.2-1.5l9.8-36C1334.8,691.5,1333.5,688,1328.7,687.2Z" style="fill:#93b0e8;fill-rule:evenodd"/></g><g id="shoes"><path d="M1270.5,735.2c-5.6,0-6,4.6-6,4.6l.7,2.6h10.7l.7-2.6S1276.5,735.2,1270.5,735.2Zm49.3,0c-5.6,0-6,4.6-6,4.6l.7,2.6h10.7l.7-2.6S1325.8,735.2,1319.8,735.2Z" style="fill:#d5e3ff;fill-rule:evenodd"/></g><g id="body"><path d="M1324.3,681.6l-9.6-26.6c-.5-3-3.7-3.9-7.3-5.3a40.7,40.7,0,0,0-11.9-2,50.7,50.7,0,0,0-12.6,2c-4,1.5-6.8,2.3-7.3,5.3l1.7,26.6c-.9,4.9,2.3,9.2,7.3,9.2h32.5C1322,690.8,1325.2,686.5,1324.3,681.6Z" style="fill:#3c98fe;fill-rule:evenodd"/></g><g id="形状_5" data-name="形状 5"><path d="M1273,630.5l-1-4s-3.2-1.5-4-1-1.6.6-1,5a35.4,35.4,0,0,0,1,5c.4,1.3-2,7-2,7l5-2,1-3,2-3v-5Z" style="fill:#fff;fill-rule:evenodd"/></g><g id="arms"><path d="M1278.5,667.6l-1.3-14.6-8.4,6.3,3-19.2a1.2,1.2,0,0,0-1-1.4l-3.1-.3a1.2,1.2,0,0,0-1.4,1l-8.3,27.4c-.6,3.1.3,5.4,3.4,5.9a5,5,0,0,0,1.8,0h0Z" style="fill:#3c98fe;fill-rule:evenodd"/></g><g id="o"><ellipse cx="1294.5" cy="650.1" rx="7.3" ry="2.3" style="fill:#f2f6ff"/></g><g id="pc"><rect x="1275" y="663.5" width="40" height="29" rx="3" ry="3" style="fill:#e3ecff"/></g><g id="椭圆_2" data-name="椭圆 2"><circle cx="1295" cy="678.5" r="2" style="fill:#fff"/></g><g id="face"><path d="M1304.5,636.5h-.7c-.4-5.5-4.1-9-8.6-9s-8.2,3.5-8.6,8.9h0a2.5,2.5,0,0,0,0,5h.5c1.2,4.7,4.4,9,8.1,9s7.1-4.4,8.2-9.2a2.5,2.5,0,0,0,1.1.3,2.5,2.5,0,0,0,0-5Z" style="fill:#fff;fill-rule:evenodd"/></g><g id="hair"><path d="M1306.9,622.5c-.2.1-2.1,3.9-8.9,1.1-9.5-3.9-14.2,3.2-14,6.3s2.5,9.6,2.5,9.6-.6-1.8.5-5.2c1.6-4.8,14.5-4.6,16.3-.7a8.9,8.9,0,0,1,.5,5.9,34.3,34.3,0,0,0,2.5-5.9C1307.1,630.5,1307.2,622.4,1306.9,622.5Z" style="fill:#6278ac;fill-rule:evenodd"/></g><g id="_" data-name="|"><path d="M1429.5,639.1a3.7,3.7,0,0,0-2.2-3.4V612.2h-3v23.5a3.7,3.7,0,0,0,0,6.9v91.7h3V642.6A3.7,3.7,0,0,0,1429.5,639.1Z" style="fill:#b8d0ff;fill-rule:evenodd"/></g><g id="_2" data-name="|"><path d="M1416,656.5V623.4a.8.8,0,1,0-1.5,0v33.1a2.3,2.3,0,1,0,1.5,0Z" style="fill:#d5e3ff;fill-rule:evenodd"/></g><g id="圆角矩形_1" data-name="圆角矩形 1"><path d="M1446.9,623.8l-8-28.1a1.8,1.8,0,0,0-1.7-1.5h-22.8a1.8,1.8,0,0,0-1.7,1.5l-8,28.1c-.3,1.8.4,3.4,1.6,3.4h38.9C1446.5,627.1,1447.2,625.6,1446.9,623.8Z" style="fill:#d5e3ff;fill-rule:evenodd"/></g><g id="_3" data-name="="><path d="M1436.1,731.2h-20.7a7.6,7.6,0,0,0-7.6,7.6h0a2.9,2.9,0,0,0,2.9,2.9h30.3a2.9,2.9,0,0,0,2.9-2.9h0A7.6,7.6,0,0,0,1436.1,731.2Z" style="fill:#d5e3ff;fill-rule:evenodd"/></g><g id="_4" data-name="|"><path d="M1166.3,625.6c-1.7,0-6,20.5-6,33.8v43.1a2.5,2.5,0,0,0,2.5,2.5h6.9a2.5,2.5,0,0,0,2.5-2.5V659.5C1172.3,647.1,1167.9,625.6,1166.3,625.6Z" style="fill:#d5e3ff;fill-rule:evenodd"/></g><g id="_5" data-name="/"><path d="M1165.1,697.1l-5.1-24c-2.1-10-7.9-23.2-9.1-23s-1.3,13.8,1,24.7l5.1,24a2.1,2.1,0,0,0,2.4,1.6l4-.9A2.1,2.1,0,0,0,1165.1,697.1Z" style="fill:#d5e3ff;fill-rule:evenodd"/></g><g id="_6" data-name="/"><path d="M1181,654.7c-1.2-.3-7,12.9-9.1,23l-5.1,24a2.1,2.1,0,0,0,1.6,2.4l4,.9a2.1,2.1,0,0,0,2.4-1.6l5.1-24C1182.3,668.5,1182.3,654.9,1181,654.7Z" style="fill:#d5e3ff;fill-rule:evenodd"/></g><g id="cup"><path d="M1178.9,694.6h-25.4c-2.1,0-3.3,1-2.9,4.8l7,40.5a2.2,2.2,0,0,0,2.1,2h12.9a2.2,2.2,0,0,0,2.1-2l7-40.5C1182.3,695.5,1181,694.6,1178.9,694.6Z" style="fill:#e9f0ff;fill-rule:evenodd"/></g><g id="photo"><path d="M1268.2,548.5h-39a3,3,0,0,0-3,3v51.7a3,3,0,0,0,3,3h39a3,3,0,0,0,3-3V551.5A3,3,0,0,0,1268.2,548.5Zm80-10h-39a3,3,0,0,0-3,3v51.7a3,3,0,0,0,3,3h39a3,3,0,0,0,3-3V541.5A3,3,0,0,0,1348.2,538.5Z" style="fill:#e2ebff;fill-rule:evenodd"/></g><g id="矩形_4" data-name="矩形 4"><path d="M1232,599.5h33v-45h-33Zm80-55v45h33v-45Z" style="fill:#f0f5ff;fill-rule:evenodd"/></g><g id="圆角矩形_8" data-name="圆角矩形 8"><path d="M700.9,684.4a2,2,0,0,0-.4-1.2v-.5a3,3,0,0,0-3-3H677.3V643.8a6,6,0,0,0-6-6H636.8a6,6,0,0,0-6,6l4.4,41-7.4,52.8a2,2,0,0,0,2,2h0a2,2,0,0,0,2-2l7-49.6a3,3,0,0,0,1.5.4h12.5l-5.6,49.2a2,2,0,0,0,2,2h0a2,2,0,0,0,2-2l5.6-49.2h40.6l8.3,49.2a2,2,0,0,0,2,2h0a2,2,0,0,0,2-2Z" style="fill:#d5e3ff;fill-rule:evenodd"/></g><g id="qunzi"><path d="M689.4,667.5s-9.6-3.7-9.7-4.5a64,64,0,0,0-1.5-6.7H648.4s-4.5,9.2-4.5,14.2-1.5,12,11.2,12h27.6C694.3,682.5,689.4,667.5,689.4,667.5Z" style="fill:#93b0e8;fill-rule:evenodd"/></g><g id="legs-2" data-name="legs"><path d="M679.1,674.7c.1-4.8-2.4-7.5-5.7-7.3s-5.3,2.6-5.3,6.7L662.6,729c0,.5-.5,5.1,0,6.8a4.3,4.3,0,0,0,3,3s4.4,2.2,3.8-4.5a33,33,0,0,1,0-6.8Zm18,57.3c-1.1-.7-2.1-3.2-2.5-5.3l-2.5-52.6c0-4.1-2.3-6.5-5.3-6.7s-5.8,2.5-5.7,7.3l8.4,53.5c0,1.2-1.4,5.2-.5,5.3a22,22,0,0,1,3,2.3c2.3,1.9,5.8,3.7,7.2,3.7,3.2,0,3.3-1.5,3.3-1.5S699.8,733.8,697.2,732Z" style="fill:#fff;fill-rule:evenodd"/></g><g id="shoes-2" data-name="shoes"><path d="M669.4,736.5c-.6,1.3-2.1,1.4-3.2,1.4s-3.8,1-4.3-2.1a24.4,24.4,0,0,1-.2-3.7c0-.9.2-3.8.2-3.8a15.1,15.1,0,0,0-.8,2.3c-.2,1.3-.7,5.2-.8,6a.4.4,0,0,0,.7.1c0-.6,0-1.3.1-1.9a4.1,4.1,0,0,1,0,1.7H661c-.1,2.9.3,5.8,4.6,5.9,6.4.1,4.2-11.1,4.2-11.1S670.2,734.9,669.4,736.5Zm32.8-.7c-1.6-2.2-1.3-.4-2.5,0s-4.7,1.2-6.6,0-4.4-2.3-4.9-3.4a21.4,21.4,0,0,1-.8-4.2s-.1,5,0,6.7a12.3,12.3,0,0,1,0,2.5l2.5.8v-1.7a5.3,5.3,0,0,1,3.3,1.7c1.4,1.6,1.4,2.2,3.3,2.5a66.2,66.2,0,0,0,8.2,0A20.6,20.6,0,0,0,702.2,735.8Z" style="fill:#d5e3ff;fill-rule:evenodd"/></g><g id="arm-r"><path d="M699.6,601.8c-.4.1-1.9,7.2-2,6.7s.4-3.2,0-3.4-.9,1.2-1.1,2.9-.2,3.2-.2,3.2a31,31,0,0,1-.9,5.1c-1.5,7-3.9,15.1-3.9,15.1l-3.4-4.7a5.7,5.7,0,0,1-2.7,2.7,23.4,23.4,0,0,1-3.4,1.3s6,7.9,8.1,9.4,4.6-.4,5.4-1.3,3.1-13.4,4.7-23.6c.2-1.4,2.7-4.7,2.7-4.7S705.3,600.3,699.6,601.8Z" style="fill:#fff;fill-rule:evenodd"/></g><g id="xiuzi-r"><path d="M678.9,612.5c-3.3-1.6-6.1,1.4-5.4,5.6s8.4,13.9,8.4,13.9a6.3,6.3,0,0,0,4.2-.9c2.9-1.6,3.5-3.3,3.5-3.3S682.8,614.4,678.9,612.5Z" style="fill:#3c98fe;fill-rule:evenodd"/></g><g id="t-s"><path d="M681,626.7c-2.5-7.5-1-13.1-2.7-14.5s-11.7-6.3-15.2-6.3-11.8,3.6-15.6,5.3,1.4,16.4,1.4,16.4,1.1,7.4,1.5,15-2.9,13.8-2.9,13.8a97.1,97.1,0,0,0,15.4.6l12.3-.6-.7-18.2S682.7,631.7,681,626.7Z" style="fill:#3c98fe;fill-rule:evenodd"/></g><g id="xiuzi-l"><path d="M644.8,612.6c-3.2,2.9-6.1,18.2-6.1,18.2s.7,2,4.1,2,4.7-.7,4.7-.7,3.7-12,4.1-16.9C651.8,612.4,647.5,610.1,644.8,612.6Z" style="fill:#3c98fe;fill-rule:evenodd"/></g><g id="arm-l"><path d="M682.2,649.1l-6.6-2.4-6,.6-25.5-3.1,3.1-12.5a12.6,12.6,0,0,1-3.7.6,25.4,25.4,0,0,1-4.2-.6s-2.8,13.6-3.1,15-.9,3.6,3.6,3.6h43S683.8,649.7,682.2,649.1Z" style="fill:#fff;fill-rule:evenodd"/></g><g id="hair-r"><path d="M670.9,580.8a8.2,8.2,0,0,0-8.3,2.4c.5,6.7,6.9,2.7,8.8,4.4a3.5,3.5,0,0,1,1.1,3.8l-6.2,12.3s-3.9,4.2,2.6,6.8a20.5,20.5,0,0,0,7.2.9s.9-2,2-4.8-1.2-5.8-1.9-8.3,2.2-2.9,2.9-6.3S674.8,582,670.9,580.8Z" style="fill:#6278ac;fill-rule:evenodd"/></g><g id="neck"><path d="M666.5,608.5c-2-2.5,0-7.8,0-7.8l-6.5-4.4a50.3,50.3,0,0,1,0,7.2c-.3,4.4-5,7.4-5,7.4s.7,5.6,9.7,5.5c6.4-.1,6.7-5.5,6.7-5.5A6.6,6.6,0,0,1,666.5,608.5Z" style="fill:#fff;fill-rule:evenodd"/></g><g id="face-2" data-name="face"><path d="M664.5,586c-4.1,0-6.5,2.2-6.5,7.7a8.5,8.5,0,0,0,.1.9,1.9,1.9,0,0,0-.9,1.6,1.9,1.9,0,0,0,1.8,1.9h.2c1.9,3.9,5.8,7,9,7s4.8-4.4,5.1-11.4S668.6,586,664.5,586Z" style="fill:#fff;fill-rule:evenodd"/></g><g id="hair-l"><path d="M660.4,596.4s-2.5-1.2-1.4-3.4,1.9,0,1.9,0,5.4-4.9,2.4-9.3c0,0-1.7-1.4-5.2,1s-5,6.1-3.3,12.2c1.2,4.4-.7,8-2.4,10.7a7.2,7.2,0,0,1-4.3,3.2s6.1,1.9,11-1.2c2.4-1.5,3.4-7.8,2.4-10.7A14.8,14.8,0,0,0,660.4,596.4Z" style="fill:#6278ac;fill-rule:evenodd"/></g><g id="圆角矩形_11" data-name="圆角矩形 11"><path d="M594,638.5a1,1,0,0,0-1-1H582a1,1,0,0,0-1,1l-2,10a1,1,0,0,0,1,1h15a1,1,0,0,0,1-1Z" style="fill:#b8d0ff;fill-rule:evenodd"/></g><g id="圆角矩形_12" data-name="圆角矩形 12"><rect x="573" y="616.5" width="29" height="20" rx="3" ry="3" style="fill:#d5e3ff"/></g><g id="圆角矩形_14" data-name="圆角矩形 14"><rect x="576" y="619.5" width="23" height="14" rx="1" ry="1" style="fill:#e8f0ff"/></g><g id="圆角矩形_13" data-name="圆角矩形 13"><circle cx="588" cy="614.5" r="2" style="fill:#b8d0ff"/></g><g id="圆角矩形_5" data-name="圆角矩形 5"><rect x="708" y="604.5" width="51" height="35" rx="3" ry="3" style="fill:#d5e3ff"/></g><g id="圆角矩形_6" data-name="圆角矩形 6"><path d="M745.9,647.4l-4.8-19.9c-.6-1.2-.9-2.1-2-2.1h-7.5a2.1,2.1,0,0,0-2,2.1l4.6,21h-9.5a.5.5,0,0,0,0,1h20A1.4,1.4,0,0,0,745.9,647.4Z" style="fill:#f8faff;fill-rule:evenodd"/></g><g id="foot"><path d="M589,733.5l-3-10-7,3,2,8-1,4,6,1,9-2Zm-29-10-7,3-3,8v4l6,1,9-2-6-4Z" style="fill:#fff;fill-rule:evenodd"/></g><g id="shoes-3" data-name="shoes"><path d="M604.3,737.9c-1.7-.8-8.3-1.8-10.3-3.6a8.7,8.7,0,0,0-5.2-1.8s-2,2.4-4.3,2.7-4.9-1-5.2,0a9,9,0,0,0-1.3,3.2,6.7,6.7,0,0,0,.4,3.1H606S605.9,738.7,604.3,737.9Zm-30,0c-1.7-.8-8.3-1.8-10.3-3.6a8.7,8.7,0,0,0-5.2-1.8s-2,2.4-4.3,2.7-4.9-1-5.2,0a9,9,0,0,0-1.3,3.2,6.7,6.7,0,0,0,.4,3.1H576S575.9,738.7,574.3,737.9Z" style="fill:#d5e3ff;fill-rule:evenodd"/></g><g id="legs-3" data-name="legs"><path d="M588,728.5s-12.9-45.4-18-50-24-8-24-8l-20-5-18,5s-1.9,9.9,4,13,39.2,4.5,47.9,4.9L551,729.5l9,1,7.9-27,11.1,28Z" style="fill:#93b0e8;fill-rule:evenodd"/></g><g id="face-3" data-name="face"><path d="M526,591.5c-12.1-9.2-19.5-2.9-21,4-.9,4.3,5.4,9.7,6,12s0,7,0,7l6,2,3-5s5.9-.3,7-3C531.4,597.5,526,591.5,526,591.5Z" style="fill:#fff;fill-rule:evenodd"/></g><g id="hair-2" data-name="hair"><path d="M528,582.5s-2.9,3.1-6,3-16.2-2.7-17,7c-.7,7.6,6,15,6,15l3-4s-4.4-2.6-2-5,4.5-1.5,5,0a9.5,9.5,0,0,0,2,3,6.2,6.2,0,0,1,0-4,3.2,3.2,0,0,1,3-2,9,9,0,0,0,6-1C532.9,591.4,528,582.5,528,582.5Z" style="fill:#6278ac;fill-rule:evenodd"/></g><g id="t-s-2" data-name="t-s"><path d="M530,635.5c-.3-7.4-6-15.5-8-18s-12-6-12-6c-4,3.3-8.1,15-7,21s4,44,4,44,18-7.6,21-11C528.9,664.5,530.3,642.8,530,635.5Z" style="fill:#3c98fe;fill-rule:evenodd"/></g><g id="arms-2" data-name="arms"><path d="M570.4,625.5c-1.6.9-4.8,4.7-4.8,4.7L546,636.5l-11-6-4,7s11.3,8.1,13,8,15.7-6.8,23.8-11.4c2.4-1.4,5.5-1.8,6.2-2.6s.2-4,1-5,3.8-2.9,3.7-4.2S571.2,625,570.4,625.5Z" style="fill:#fff;fill-rule:evenodd"/></g><g id="xiuzi"><path d="M522,617.5c-2.4-1.6-3.1-.1-5,2s.4,9.4,3,12,14,11,14,11l7-10S527.6,621.3,522,617.5Z" style="fill:#3c98fe;fill-rule:evenodd"/></g><g id="圆角矩形_8-2" data-name="圆角矩形 8"><path d="M539.9,686.4a2,2,0,0,0-.4-1.2v-.5a3,3,0,0,0-3-3h-21l-4.3-35.8a6,6,0,0,0-6-6h-9.4a6,6,0,0,0-6,6l4.4,41-7.4,52.8a2,2,0,0,0,2,2h0a2,2,0,0,0,2-2l7-49.6a3,3,0,0,0,1.5.4h37.2l8.3,49.2a2,2,0,0,0,2,2h0a2,2,0,0,0,2-2Z" style="fill:#d5e3ff;fill-rule:evenodd"/></g><g id="top"><path d="M756,649.5H563a3,3,0,0,0-3,3v4H759v-4A3,3,0,0,0,756,649.5Z" style="fill:#e2ebff;fill-rule:evenodd"/></g><g id="圆角矩形_4" data-name="圆角矩形 4"><rect x="564" y="656.5" width="195" height="7" style="fill:#b8d0ff"/></g><g id="圆角矩形_10" data-name="圆角矩形 10"><path d="M566.2,658.5h.5a2.3,2.3,0,0,1,2.3,2.3v78.5a2.3,2.3,0,0,1-2.3,2.3h-.5a2.3,2.3,0,0,1-2.2-2.2V660.7a2.2,2.2,0,0,1,2.2-2.2Z" style="fill:#b8d0ff"/></g></g></svg>