<svg xmlns="http://www.w3.org/2000/svg" viewBox="0 0 110 28"><title>logo</title><g id="hst" style="isolation:isolate"><g id="hst-2" data-name="hst"><path d="M46.7,20.5A18.6,18.6,0,0,1,43.5,19a6.8,6.8,0,0,0,2.1-4.8c0-.4,0-3.4,0-6h1a.2.2,0,0,0,.2-.2V6.7a.2.2,0,0,0-.2-.2h-1c0-.9,0-1.6,0-2a.2.2,0,0,0-.2-.2H44a.2.2,0,0,0-.2.2v2H40.3v-2a.2.2,0,0,0-.2-.2H38.7a.2.2,0,0,0-.2.2c0,.4,0,1.1,0,2h-1a.2.2,0,0,0-.2.2V8a.2.2,0,0,0,.2.2h1c0,2.6,0,5.6,0,6A6.8,6.8,0,0,0,40.6,19a18.6,18.6,0,0,1-3.2,1.5v1.7a.2.2,0,0,0,.3.2A15.7,15.7,0,0,0,42,20.3a15.7,15.7,0,0,0,4.6,2.1.2.2,0,0,0,.3-.2V20.5ZM42,17.9a4.9,4.9,0,0,1-1.8-3.7v-6h3.5v6A4.9,4.9,0,0,1,42,17.9ZM70.7,9.8V8.5a.2.2,0,0,0-.2-.2h-8a.2.2,0,0,0-.2.2V9.8a.2.2,0,0,0,.2.2h3.1V22.5a.2.2,0,0,0,.2.2h1.3a.2.2,0,0,0,.2-.2V10.1h3.1A.2.2,0,0,0,70.7,9.8Zm-8.2,1.8h-6l2.1-4.2a2.4,2.4,0,0,0,.2-2.4,2.5,2.5,0,0,0-2.3-.9H48.2a.2.2,0,0,0-.2.2V5.7a.2.2,0,0,0,.2.2h9.1c0,.1-.1.3-.2.6l-2.5,5H47a.2.2,0,0,0-.2.2v1.3a.2.2,0,0,0,.2.2h7.4v6.2c0,1-.4,1.2-1,1.2h-3a.2.2,0,0,0-.2.2v1.3a.2.2,0,0,0,.2.2h3a2.7,2.7,0,0,0,2.8-3V13.5h5.6a.3.3,0,0,1,.3.3v8.7a.2.2,0,0,0,.2.2h1.3a.2.2,0,0,0,.2-.2V13.1A1.4,1.4,0,0,0,62.5,11.7Zm47.3,9.2H91.8c-1.4,0-1.4-1.9-1.4-2V11.4A2.2,2.2,0,0,0,88,9.1h-.7a.2.2,0,0,0-.2.2v1.3a.2.2,0,0,0,.2.2H88c.6,0,.6.3.6.4v8.4c0,1.1-2.3,1.1-2.3,1.1H81.2A1.8,1.8,0,0,1,81,20V14.7a.2.2,0,0,0-.2-.3H79.4c.2-2.3.4-5.5.4-6.4a.2.2,0,0,0-.2-.3H78.1a.2.2,0,0,0-.2.2c-.1,1.9-.3,7.9-.8,9.2a6.7,6.7,0,0,1-6.3,3.7V12a.2.2,0,0,0-.2-.2H69.3a.2.2,0,0,0-.2.2V22.5a.2.2,0,0,0,.2.2h1.6c5.9,0,7.8-3.6,8.3-5.9V20a4.2,4.2,0,0,0,.2,1.5,1.8,1.8,0,0,0,1.8,1.2h5.2a5,5,0,0,0,3.3-1,2.9,2.9,0,0,0,2.3,1h17.9a.2.2,0,0,0,.2-.2V21.1A.2.2,0,0,0,109.8,20.9Zm-17-1.5h1.3a.2.2,0,0,0,.2-.2v-2h5.9v2a.2.2,0,0,0,.2.2h1.3a.2.2,0,0,0,.2-.2v-2h5.8v2a.2.2,0,0,0,.2.2h1.3a.2.2,0,0,0,.2-.2V11a2.7,2.7,0,0,0-1.9-2.6l.7-1a2.2,2.2,0,0,0,.5-2.2c-.5-1-1.8-1-3.8-1H94.6a.2.2,0,0,0-.2.2V5.8a.2.2,0,0,0,.2.2h12.5v.2l-1.4,2H95.2A2.7,2.7,0,0,0,92.6,11v8.2A.2.2,0,0,0,92.8,19.4Zm9.2-9.3H107a.9.9,0,0,1,.9.9v.7H102Zm0,3.4h5.8v1.8H102ZM94.4,11a.9.9,0,0,1,.9-.9h5v1.6H94.4Zm0,2.5h5.9v1.8H94.4ZM73.2,17.7h1.3a.2.2,0,0,0,.2-.3V6.8a.7.7,0,0,1,.7-.7h6.8a.7.7,0,0,1,.7.7V17.5a.2.2,0,0,0,.2.3h1.3a.2.2,0,0,0,.2-.3V6.8a2.5,2.5,0,0,0-2.5-2.6H75.5A2.5,2.5,0,0,0,73,6.8V17.5A.2.2,0,0,0,73.2,17.7ZM87.3,6h3.7a.2.2,0,0,0,.2-.2V4.4a.2.2,0,0,0-.2-.2H87.3a.2.2,0,0,0-.2.2V5.8A.2.2,0,0,0,87.3,6ZM62.5,6h8a.2.2,0,0,0,.2-.2V4.4a.2.2,0,0,0-.2-.2h-8a.2.2,0,0,0-.2.2V5.7A.2.2,0,0,0,62.5,6Z" transform="translate(0 0)" style="fill:#323232;fill-rule:evenodd"/></g></g><g id="形状_2" data-name="形状 2" style="isolation:isolate"><g id="形状_2-2" data-name="形状 2"><path d="M17.5,10.4a18.7,18.7,0,0,1-3.7.5,15.2,15.2,0,0,1-3.7-.5c-.3,0-.5.2-.3.5a14.6,14.6,0,0,1,2.3,2.8,16.6,16.6,0,0,1,1.4,3.5.3.3,0,0,0,.6,0,17.8,17.8,0,0,1,1.4-3.4,20.3,20.3,0,0,1,2.3-3C18,10.6,17.8,10.4,17.5,10.4Z" transform="translate(0 0)" style="fill:#ffcd00;fill-rule:evenodd"/></g></g><g id="形状_1" data-name="形状 1" style="isolation:isolate"><g id="形状_1-2" data-name="形状 1"><path d="M8.9,12.5C7.2,10.6,0,6.8,0,6.8V18.1c0,2.2.6,3.2,1.8,3.9l10.3,6V20.8A12.6,12.6,0,0,0,8.9,12.5Z" transform="translate(0 0)" style="fill:#8c0;fill-rule:evenodd"/></g></g><g id="形状_1-3" data-name="形状 1" style="isolation:isolate"><g id="形状_1-4" data-name="形状 1"><path d="M18.8,12.5a12.6,12.6,0,0,0-3.3,8.3V28l10.3-6c1.2-.7,1.8-1.7,1.8-3.9V6.8S20.5,10.6,18.8,12.5Z" transform="translate(0 0)" style="fill:#0080ff;fill-rule:evenodd"/></g></g><g id="形状_1-5" data-name="形状 1" style="isolation:isolate"><g id="形状_1-6" data-name="形状 1"><path d="M15.6.4c-1.6-.6-2.1-.6-4.2.3L2.1,4s6.5,4.2,8.9,4.7a12.3,12.3,0,0,0,8.8-1.2L25.6,4Z" transform="translate(0 0)" style="fill:#ff6900;fill-rule:evenodd"/></g></g></svg>